<svg xmlns:svg="http://www.w3.org/2000/svg" xmlns:dc="http://purl.org/dc/elements/1.1/" xmlns:rdf="http://www.w3.org/1999/02/22-rdf-syntax-ns#" xmlns:cc="http://creativecommons.org/ns#" xmlns="http://www.w3.org/2000/svg" xmlns:xlink="http://www.w3.org/1999/xlink" version="1.1" id="svg2" x="0px" y="0px" viewBox="0 0 680.3 642.5" style="enable-background:new 0 0 680.3 642.5;" xml:space="preserve"><style type="text/css">.st0{fill:none;stroke:#000000;stroke-width:0.3333;stroke-miterlimit:10;}	.st1{enable-background:new ;}</style><path id="path14" class="st0" d="M465.1,234.2l24.6,26.8h49.7"/><path id="path16" class="st0" d="M472.6,546.2l24.6,26.8h49.7"/><path id="path18" class="st0" d="M232.1,80.1l-24.6-26.8h-49.7"/><path id="path20" class="st0" d="M233,409.4l-24.6-26.8h-49.7"/><path id="path22" class="st0" d="M431,62.6l24.6-26.8h83.7"/><path d="M422.3,611.7c29.5-21.8,48.8-53.8,54.3-90.1c11.3-74.9-40.5-145.1-115.3-156.4c-6.1-0.9-12.3-1.4-18.5-1.5v30.9 c57.8,1.1,104.5,48.5,104.5,106.6c0,58.8-47.8,106.6-106.5,106.6c-4.6,0-9.3-0.3-13.9-0.9l-4.6,30.5 C357.8,642.1,393.3,633.1,422.3,611.7z"/><g class="st1"><path d="M44.4,53.2l3.8-9.4h0.9l3.8,9.4H52l-1.3-3.3h-4.1l-1.3,3.3H44.4z M50.3,49.1c-0.6-1.5-1.2-3.1-1.7-4.3h0 c-0.3,0.8-1,2.6-1.7,4.3H50.3z"/></g><g class="st1"><path d="M54.1,53.2v-6.6h0.8v1.4h0c0.3-0.9,1.2-1.6,2.1-1.6c0.2,0,0.5,0,0.8,0.1v0.9c-0.2-0.1-0.6-0.2-0.8-0.2 c-1.4,0-2.1,1.4-2.1,2.7v3.2H54.1z"/></g><g class="st1"><path d="M59.5,51.2v-3.9h-1.3v-0.7h1.3v-2h0.8v2h2v0.7h-2V51c0,0.7,0,1.7,0.9,1.7c0.3,0,0.7-0.1,1.1-0.4v0.8 c-0.3,0.2-0.8,0.3-1.2,0.3C59.5,53.4,59.5,52,59.5,51.2z"/></g><g class="st1"><path d="M63.4,44.2c0-0.4,0.3-0.7,0.7-0.7c0.4,0,0.7,0.3,0.7,0.7c0,0.4-0.3,0.7-0.7,0.7C63.7,44.9,63.4,44.6,63.4,44.2z M63.7,53.2 v-6.6h0.8v6.6H63.7z"/></g><g class="st1"><path d="M65.9,51.5l0.8-0.2c0.3,0.8,1.2,1.4,2,1.4c0.6,0,1.5-0.3,1.5-1.2c0-0.8-0.7-1-1.4-1.2l-0.6-0.2c-0.6-0.2-1.9-0.6-1.9-1.9 c0-1.3,1.2-1.8,2.2-1.8c1.1,0,2.1,0.7,2.4,1.6L70,48.2c-0.2-0.6-0.8-1.2-1.6-1.2c-0.7,0-1.3,0.4-1.3,1.1c0,0.8,0.9,1.1,1.5,1.3 l0.6,0.2c0.7,0.2,1.8,0.5,1.8,1.7c0,1.1-1,2-2.4,2C67.3,53.4,66.3,52.6,65.9,51.5z"/></g><g class="st1"><path d="M72.8,51.2v-3.9h-1.3v-0.7h1.3v-2h0.8v2h2v0.7h-2V51c0,0.7,0,1.7,0.9,1.7c0.3,0,0.7-0.1,1.1-0.4v0.8 c-0.3,0.2-0.8,0.3-1.2,0.3C72.8,53.4,72.8,52,72.8,51.2z"/></g><g class="st1"><path d="M76.4,49.9c0-2.1,1.4-3.5,3.2-3.5c1.2,0,3,0.7,3,3.3v0.4h-5.4c0,1.6,1,2.6,2.4,2.6c1.2,0,2-0.8,2.3-1.7l0.7,0.3 c-0.5,1.4-1.7,2.1-3.1,2.1C77.8,53.4,76.4,52,76.4,49.9z M81.8,49.3c0-1.7-1.2-2.3-2.2-2.3c-1.3,0-2.2,0.9-2.3,2.3H81.8z"/></g><g class="st1"><path d="M83.7,51.5l0.8-0.2c0.3,0.8,1.2,1.4,2,1.4c0.6,0,1.5-0.3,1.5-1.2c0-0.8-0.7-1-1.4-1.2l-0.6-0.2C85.3,50,84,49.6,84,48.2 c0-1.3,1.2-1.8,2.2-1.8c1.1,0,2.1,0.7,2.4,1.6l-0.8,0.3c-0.2-0.6-0.8-1.2-1.6-1.2c-0.7,0-1.3,0.4-1.3,1.1c0,0.8,0.9,1.1,1.5,1.3 l0.6,0.2c0.7,0.2,1.8,0.5,1.8,1.7c0,1.1-1,2-2.4,2C85.1,53.4,84.1,52.6,83.7,51.5z"/></g><g class="st1"><path d="M92.9,49.9c0-2.1,1.4-3.5,3.2-3.5c1.2,0,3,0.7,3,3.3v0.4h-5.4c0,1.6,1,2.6,2.4,2.6c1.2,0,2-0.8,2.3-1.7l0.7,0.3 c-0.5,1.4-1.7,2.1-3.1,2.1C94.3,53.4,92.9,52,92.9,49.9z M98.4,49.3c0-1.7-1.2-2.3-2.2-2.3c-1.3,0-2.2,0.9-2.3,2.3H98.4z M96.4,45.7h-0.7l1.4-2.3h1.1L96.4,45.7z"/></g><g class="st1"><path d="M101.2,51.2v-3.9h-1.3v-0.7h1.3v-2h0.8v2h2v0.7h-2V51c0,0.7,0,1.7,0.9,1.7c0.3,0,0.7-0.1,1.1-0.4v0.8 c-0.3,0.2-0.8,0.3-1.2,0.3C101.2,53.4,101.2,52,101.2,51.2z"/></g><g class="st1"><path d="M105.4,53.2v-6.6h0.8v1.4h0c0.3-0.9,1.2-1.6,2.1-1.6c0.2,0,0.5,0,0.8,0.1v0.9c-0.2-0.1-0.6-0.2-0.8-0.2 c-1.4,0-2.1,1.4-2.1,2.7v3.2H105.4z"/></g><g class="st1"><path d="M109.6,51.7c0-1.2,1.1-1.8,2.4-2c1.2-0.3,2.1-0.3,2.1-1.1c0-0.7-0.7-1.4-1.7-1.4c-0.9,0-1.5,0.5-1.8,1.4l-0.8-0.3 c0.4-1.3,1.5-1.8,2.6-1.8c1.2,0,2.5,0.6,2.5,2.2v2.5c0,1.1,0.1,1.6,0.2,2.1h-0.8c-0.1-0.5-0.2-0.9-0.2-1.4h0 c-0.4,0.9-1.2,1.6-2.4,1.6C110.6,53.4,109.6,52.8,109.6,51.7z M114.1,50.5v-0.9c-0.4,0.3-0.7,0.4-1.6,0.6c-0.8,0.1-2.1,0.4-2.1,1.4 c0,0.7,0.5,1.1,1.4,1.1C113.2,52.7,114.1,51.4,114.1,50.5z"/></g><g class="st1"><path d="M117,53.2v-6.6h0.8v1.3h0c0.5-1,1.4-1.5,2.3-1.5c1.2,0,2.4,0.7,2.4,2.7v4.1h-0.8v-3.8c0-1.7-0.9-2.3-1.8-2.3 c-1.4,0-2.1,1.2-2.1,2.4v3.7H117z"/></g><g class="st1"><path d="M124.4,54.1l0.7-0.3c0.3,0.9,1,1.5,2.2,1.5c1.2,0,2.3-0.6,2.3-2.8v-0.8h0c-0.5,1-1.5,1.5-2.5,1.5c-1.8,0-3.1-1.5-3.1-3.4 c0-2,1.3-3.4,3.1-3.4c1.1,0,2,0.5,2.5,1.6h0v-1.4h0.8v5.8c0,2.7-1.3,3.6-3.1,3.6C126,56,124.9,55.5,124.4,54.1z M129.7,49.7 c0-1.5-1.1-2.6-2.4-2.6c-1.4,0-2.3,1.2-2.3,2.6c0,1.5,1,2.7,2.3,2.7C128.6,52.4,129.7,51.3,129.7,49.7z"/></g><g class="st1"><path d="M132.1,49.9c0-2.1,1.4-3.5,3.2-3.5c1.2,0,3,0.7,3,3.3v0.4h-5.4c0,1.6,1,2.6,2.4,2.6c1.2,0,2-0.8,2.3-1.7l0.7,0.3 c-0.5,1.4-1.7,2.1-3.1,2.1C133.5,53.4,132.1,52,132.1,49.9z M137.5,49.3c0-1.7-1.2-2.3-2.2-2.3c-1.3,0-2.2,0.9-2.3,2.3H137.5z"/></g><g class="st1"><path d="M140,53.2v-6.6h0.8v1.4h0c0.3-0.9,1.2-1.6,2.1-1.6c0.2,0,0.5,0,0.8,0.1v0.9c-0.2-0.1-0.6-0.2-0.8-0.2 c-1.4,0-2.1,1.4-2.1,2.7v3.2H140z"/></g><g class="st1"><path d="M144.2,51.5l0.8-0.2c0.3,0.8,1.2,1.4,2,1.4c0.6,0,1.5-0.3,1.5-1.2c0-0.8-0.7-1-1.4-1.2l-0.6-0.2c-0.6-0.2-1.9-0.6-1.9-1.9 c0-1.3,1.2-1.8,2.2-1.8c1.1,0,2.1,0.7,2.4,1.6l-0.8,0.3c-0.2-0.6-0.8-1.2-1.6-1.2c-0.7,0-1.3,0.4-1.3,1.1c0,0.8,0.9,1.1,1.5,1.3 l0.6,0.2c0.7,0.2,1.8,0.5,1.8,1.7c0,1.1-1,2-2.4,2C145.6,53.4,144.6,52.6,144.2,51.5z"/></g><g class="st1"><path d="M139.9,70.5V64c-0.4,0.5-1.2,0.9-1.8,1.1v-1.9c1.1-0.3,1.9-1.2,1.9-2.1h1.8v9.4H139.9z"/></g><g class="st1"><path d="M144.4,70.5c0-2.2,0.7-5.3,3.1-7.9h-4.5v-1.5h6.6v1.5c-2.5,2.2-3.3,5.6-3.3,7.9H144.4z"/></g><g class="st1"><path d="M103.4,373.1h0.9v9.4h-0.9v-4.3h-5.5v4.3H97v-9.4h0.9v4.2h5.5V373.1z"/></g><g class="st1"><path d="M105.9,379.2c0-2.1,1.4-3.5,3.3-3.5c1.9,0,3.3,1.5,3.3,3.5s-1.4,3.5-3.3,3.5C107.3,382.7,105.9,381.2,105.9,379.2z M111.7,379.2c0-1.6-1-2.8-2.4-2.8s-2.5,1.2-2.5,2.8s1,2.8,2.5,2.8S111.7,380.8,111.7,379.2z"/></g><g class="st1"><path d="M114.2,382.5v-6.6h0.8v1.3h0c0.5-1,1.4-1.5,2.3-1.5c0.9,0,1.9,0.4,2.2,1.6h0c0.6-1.2,1.5-1.6,2.4-1.6 c1.1,0,2.4,0.7,2.4,2.7v4.1h-0.8v-3.8c0-1.7-0.8-2.3-1.8-2.3c-1.3,0-2.1,1.2-2.1,2.4v3.7h-0.8v-3.8c0-1.7-0.8-2.3-1.8-2.3 c-1.3,0-2.1,1.2-2.1,2.4v3.7H114.2z"/></g><g class="st1"><path d="M126.3,382.5v-6.6h0.8v1.3h0c0.5-1,1.4-1.5,2.3-1.5c0.9,0,1.9,0.4,2.2,1.6h0c0.6-1.2,1.5-1.6,2.4-1.6 c1.1,0,2.4,0.7,2.4,2.7v4.1h-0.8v-3.8c0-1.7-0.8-2.3-1.8-2.3c-1.3,0-2.1,1.2-2.1,2.4v3.7h-0.8v-3.8c0-1.7-0.8-2.3-1.8-2.3 c-1.3,0-2.1,1.2-2.1,2.4v3.7H126.3z"/></g><g class="st1"><path d="M137.9,379.2c0-2.1,1.4-3.5,3.2-3.5c1.2,0,3,0.7,3,3.3v0.4h-5.4c0,1.6,1,2.6,2.4,2.6c1.2,0,2-0.8,2.3-1.7l0.7,0.3 c-0.5,1.4-1.7,2.1-3.1,2.1C139.3,382.7,137.9,381.3,137.9,379.2z M143.3,378.6c0-1.7-1.2-2.3-2.2-2.3c-1.3,0-2.2,0.9-2.3,2.3H143.3 z"/></g><g class="st1"><path d="M145.2,380.8l0.8-0.2c0.3,0.8,1.2,1.4,2,1.4c0.6,0,1.5-0.3,1.5-1.2c0-0.8-0.7-1-1.4-1.2l-0.6-0.2c-0.6-0.2-1.9-0.6-1.9-1.9 c0-1.3,1.2-1.8,2.2-1.8c1.1,0,2.1,0.7,2.4,1.6l-0.8,0.3c-0.2-0.6-0.8-1.2-1.6-1.2c-0.7,0-1.3,0.4-1.3,1.1c0,0.8,0.9,1.1,1.5,1.3 l0.6,0.2c0.7,0.2,1.8,0.5,1.8,1.7c0,1.1-1,2-2.4,2C146.6,382.7,145.5,381.9,145.2,380.8z"/></g><g class="st1"><path d="M135.3,399.8v-0.2c0.1-2.2,0.9-3.1,3-4.5c0.9-0.6,1.6-1.1,1.6-2c0-0.7-0.5-1.3-1.4-1.3c-1.1,0-1.8,0.9-1.8,2.1l-1.7-0.3 c0-2,1.4-3.4,3.5-3.4c1.8,0,3.2,1.1,3.2,2.9c0,1.3-0.8,2.1-1.7,2.7c-1,0.7-2.2,1.2-2.5,2.3h4.1v1.7H135.3z"/></g><g class="st1"><path d="M142.9,395.1c0-2.9,1.4-4.9,3.6-4.9s3.6,2,3.6,4.9c0,2.9-1.4,4.9-3.6,4.9S142.9,398,142.9,395.1z M148.2,395.1 c0-2.1-0.7-3.2-1.7-3.2c-1.1,0-1.8,1.1-1.8,3.2c0,2.1,0.7,3.2,1.8,3.2C147.5,398.3,148.2,397.3,148.2,395.1z"/></g><g class="st1"><path d="M547.9,35.8l3.8-9.4h0.9l3.8,9.4h-0.9l-1.3-3.3h-4.1l-1.3,3.3H547.9z M553.9,31.8c-0.6-1.5-1.2-3.1-1.7-4.3h0 c-0.3,0.8-1,2.6-1.7,4.3H553.9z"/></g><g class="st1"><path d="M557.6,35.8v-6.6h0.8v1.4h0c0.3-0.9,1.2-1.6,2.1-1.6c0.2,0,0.5,0,0.8,0.1V30c-0.2-0.1-0.6-0.2-0.8-0.2 c-1.4,0-2.1,1.4-2.1,2.7v3.2H557.6z"/></g><g class="st1"><path d="M563,33.9v-3.9h-1.3v-0.7h1.3v-2h0.8v2h2v0.7h-2v3.7c0,0.7,0,1.7,0.9,1.7c0.3,0,0.7-0.1,1.1-0.4v0.8 c-0.3,0.2-0.8,0.3-1.2,0.3C563,36,563,34.6,563,33.9z"/></g><g class="st1"><path d="M566.9,26.9c0-0.4,0.3-0.7,0.7-0.7c0.4,0,0.7,0.3,0.7,0.7c0,0.4-0.3,0.7-0.7,0.7C567.2,27.6,566.9,27.3,566.9,26.9z M567.2,35.8v-6.6h0.8v6.6H567.2z"/></g><g class="st1"><path d="M569.5,34.2l0.8-0.2c0.3,0.8,1.2,1.4,2,1.4c0.6,0,1.5-0.3,1.5-1.2c0-0.8-0.7-1-1.4-1.2l-0.6-0.2c-0.6-0.2-1.9-0.6-1.9-1.9 c0-1.3,1.2-1.8,2.2-1.8c1.1,0,2.1,0.7,2.4,1.6l-0.8,0.3c-0.2-0.6-0.8-1.2-1.6-1.2c-0.7,0-1.3,0.4-1.3,1.1c0,0.8,0.9,1.1,1.5,1.3 l0.6,0.2c0.7,0.2,1.8,0.5,1.8,1.7c0,1.1-1,2-2.4,2C570.9,36,569.8,35.3,569.5,34.2z"/></g><g class="st1"><path d="M576.4,33.9v-3.9h-1.3v-0.7h1.3v-2h0.8v2h2v0.7h-2v3.7c0,0.7,0,1.7,0.9,1.7c0.3,0,0.7-0.1,1.1-0.4v0.8 c-0.3,0.2-0.8,0.3-1.2,0.3C576.4,36,576.4,34.6,576.4,33.9z"/></g><g class="st1"><path d="M580,32.5c0-2.1,1.4-3.5,3.2-3.5c1.2,0,3,0.7,3,3.3v0.4h-5.4c0,1.6,1,2.6,2.4,2.6c1.2,0,2-0.8,2.3-1.7l0.7,0.3 c-0.5,1.4-1.7,2.1-3.1,2.1C581.3,36,580,34.6,580,32.5z M585.4,32c0-1.7-1.2-2.3-2.2-2.3c-1.3,0-2.2,0.9-2.3,2.3H585.4z"/></g><g class="st1"><path d="M587.2,34.2l0.8-0.2c0.3,0.8,1.2,1.4,2,1.4c0.6,0,1.5-0.3,1.5-1.2c0-0.8-0.7-1-1.4-1.2l-0.6-0.2c-0.6-0.2-1.9-0.6-1.9-1.9 c0-1.3,1.2-1.8,2.2-1.8c1.1,0,2.1,0.7,2.4,1.6l-0.8,0.3c-0.2-0.6-0.8-1.2-1.6-1.2c-0.7,0-1.3,0.4-1.3,1.1c0,0.8,0.9,1.1,1.5,1.3 l0.6,0.2c0.7,0.2,1.8,0.5,1.8,1.7c0,1.1-1,2-2.4,2C588.7,36,587.6,35.3,587.2,34.2z"/></g><g class="st1"><path d="M596.5,32.5c0-2.1,1.4-3.5,3.1-3.5c1,0,2,0.5,2.5,1.5h0v-4.3h0.8v7.5c0,1.1,0.1,1.6,0.2,2.1h-0.8c-0.1-0.5-0.2-0.9-0.2-1.3 h0c-0.5,1-1.5,1.5-2.5,1.5C597.8,36,596.5,34.6,596.5,32.5z M602.1,32.5c0-1.6-1.1-2.8-2.4-2.8c-1.4,0-2.3,1.2-2.3,2.8 s1,2.8,2.3,2.8C601,35.3,602.1,34.2,602.1,32.5z"/></g><g class="st1"><path d="M604.5,32.5c0-2.1,1.4-3.5,3.2-3.5c1.2,0,3,0.7,3,3.3v0.4h-5.4c0,1.6,1,2.6,2.4,2.6c1.2,0,2-0.8,2.3-1.7l0.7,0.3 c-0.5,1.4-1.7,2.1-3.1,2.1C605.9,36,604.5,34.6,604.5,32.5z M609.9,32c0-1.7-1.2-2.3-2.2-2.3c-1.3,0-2.2,0.9-2.3,2.3H609.9z"/></g><g class="st1"><path d="M549,53.2v-9.4h0.9c1.8,2.6,3.7,5.3,5.6,8h0v-8h0.9v9.4h-0.9c-1.8-2.6-3.7-5.2-5.6-7.9h0v7.9H549z"/></g><g class="st1"><path d="M558.1,49.9c0-2.1,1.4-3.5,3.3-3.5c1.9,0,3.3,1.5,3.3,3.5c0,2.1-1.4,3.5-3.3,3.5C559.4,53.4,558.1,51.9,558.1,49.9z M563.8,49.9c0-1.6-1-2.8-2.4-2.8s-2.5,1.2-2.5,2.8s1,2.8,2.5,2.8S563.8,51.5,563.8,49.9z"/></g><g class="st1"><path d="M566.2,50.7v-4.1h0.8v3.8c0,1.7,0.9,2.2,1.8,2.2c1.3,0,2.1-1.2,2.1-2.3v-3.7h0.8v4.5c0,1.1,0.1,1.6,0.2,2.1H571 c-0.1-0.5-0.2-0.9-0.2-1.2h0c-0.5,1-1.3,1.4-2.3,1.4C567.4,53.4,566.2,52.7,566.2,50.7z"/></g><g class="st1"><path d="M575.6,53.2l-2.6-6.6h0.9c0.7,1.9,1.5,3.7,2.2,5.6h0c0.7-1.9,1.4-3.8,2.2-5.6h0.9l-2.6,6.6H575.6z"/></g><g class="st1"><path d="M579.7,49.9c0-2.1,1.4-3.5,3.2-3.5c1.2,0,3,0.7,3,3.3v0.4h-5.4c0,1.6,1,2.6,2.4,2.6c1.2,0,2-0.8,2.3-1.7l0.7,0.3 c-0.5,1.4-1.7,2.1-3.1,2.1C581.1,53.4,579.7,52,579.7,49.9z M585.1,49.3c0-1.7-1.2-2.3-2.2-2.3c-1.3,0-2.2,0.9-2.3,2.3H585.1z"/></g><g class="st1"><path d="M587.7,53.2v-9.6h0.8v9.6H587.7z"/></g><g class="st1"><path d="M590.6,53.2v-9.6h0.8v9.6H590.6z"/></g><g class="st1"><path d="M593,49.9c0-2.1,1.4-3.5,3.2-3.5c1.2,0,3,0.7,3,3.3v0.4h-5.4c0,1.6,1,2.6,2.4,2.6c1.2,0,2-0.8,2.3-1.7l0.7,0.3 c-0.5,1.4-1.7,2.1-3.1,2.1C594.4,53.4,593,52,593,49.9z M598.4,49.3c0-1.7-1.2-2.3-2.2-2.3c-1.3,0-2.2,0.9-2.3,2.3H598.4z"/></g><g class="st1"><path d="M600.6,49.9v-0.7h3.3v0.7H600.6z"/></g><g class="st1"><path d="M604.5,53.2l3.8-9.4h0.9l3.8,9.4h-0.9l-1.3-3.3h-4.1l-1.3,3.3H604.5z M610.4,49.1c-0.6-1.5-1.2-3.1-1.7-4.3h0 c-0.3,0.8-1,2.6-1.7,4.3H610.4z"/></g><g class="st1"><path d="M619.2,55.8v-4c-0.5,1-1.5,1.6-2.5,1.6c-1.8,0-3.1-1.5-3.1-3.5c0-2.1,1.4-3.5,3.1-3.5c1.1,0,2,0.5,2.5,1.6h0v-1.4h0.8v9.3 H619.2z M619.2,49.9c0-1.6-1.1-2.8-2.4-2.8c-1.4,0-2.3,1.2-2.3,2.8c0,1.6,1,2.8,2.3,2.8C618.1,52.6,619.2,51.5,619.2,49.9z"/></g><g class="st1"><path d="M622,50.7v-4.1h0.8v3.8c0,1.7,0.9,2.2,1.8,2.2c1.3,0,2.1-1.2,2.1-2.3v-3.7h0.8v4.5c0,1.1,0.1,1.6,0.2,2.1h-0.8 c-0.1-0.5-0.2-0.9-0.2-1.2h0c-0.5,1-1.3,1.4-2.3,1.4C623.2,53.4,622,52.7,622,50.7z"/></g><g class="st1"><path d="M629.4,44.2c0-0.4,0.3-0.7,0.7-0.7c0.4,0,0.7,0.3,0.7,0.7c0,0.4-0.3,0.7-0.7,0.7C629.6,44.9,629.4,44.6,629.4,44.2z M629.6,53.2v-6.6h0.8v6.6H629.6z"/></g><g class="st1"><path d="M633,51.2v-3.9h-1.3v-0.7h1.3v-2h0.8v2h2v0.7h-2V51c0,0.7,0,1.7,0.9,1.7c0.3,0,0.7-0.1,1.1-0.4v0.8 c-0.3,0.2-0.8,0.3-1.2,0.3C633,53.4,633,52,633,51.2z"/></g><g class="st1"><path d="M636.6,51.7c0-1.2,1.1-1.8,2.4-2c1.2-0.3,2.1-0.3,2.1-1.1c0-0.7-0.7-1.4-1.7-1.4c-0.9,0-1.5,0.5-1.8,1.4l-0.8-0.3 c0.4-1.3,1.5-1.8,2.6-1.8c1.2,0,2.5,0.6,2.5,2.2v2.5c0,1.1,0.1,1.6,0.2,2.1h-0.8c-0.1-0.5-0.2-0.9-0.2-1.4h0 c-0.4,0.9-1.2,1.6-2.4,1.6C637.6,53.4,636.6,52.8,636.6,51.7z M641.1,50.5v-0.9c-0.4,0.3-0.7,0.4-1.6,0.6c-0.8,0.1-2.1,0.4-2.1,1.4 c0,0.7,0.5,1.1,1.4,1.1C640.3,52.7,641.1,51.4,641.1,50.5z"/></g><g class="st1"><path d="M643.8,44.2c0-0.4,0.3-0.7,0.7-0.7c0.4,0,0.7,0.3,0.7,0.7c0,0.4-0.3,0.7-0.7,0.7C644,44.9,643.8,44.6,643.8,44.2z M644,53.2v-6.6h0.8v6.6H644z"/></g><g class="st1"><path d="M647,53.2v-6.6h0.8v1.3h0c0.5-1,1.4-1.5,2.3-1.5c1.2,0,2.4,0.7,2.4,2.7v4.1h-0.8v-3.8c0-1.7-0.9-2.3-1.8-2.3 c-1.4,0-2.1,1.2-2.1,2.4v3.7H647z"/></g><g class="st1"><path d="M654,49.9c0-2.1,1.4-3.5,3.2-3.5c1.2,0,3,0.7,3,3.3v0.4h-5.4c0,1.6,1,2.6,2.4,2.6c1.2,0,2-0.8,2.3-1.7l0.7,0.3 c-0.5,1.4-1.7,2.1-3.1,2.1C655.4,53.4,654,52,654,49.9z M659.5,49.3c0-1.7-1.2-2.3-2.2-2.3c-1.3,0-2.2,0.9-2.3,2.3H659.5z"/></g><g class="st1"><path d="M549.4,70.5c0-2.2,0.7-5.3,3.1-7.9H548v-1.5h6.6v1.5c-2.5,2.2-3.3,5.6-3.3,7.9H549.4z"/></g><g class="st1"><path d="M547,261.2l3.8-9.4h0.9l3.8,9.4h-0.9l-1.3-3.3h-4.1l-1.3,3.3H547z M553,257.1c-0.6-1.5-1.2-3.1-1.7-4.3h0 c-0.3,0.8-1,2.6-1.7,4.3H553z"/></g><g class="st1"><path d="M556.8,261.2v-6.6h0.8v1.4h0c0.3-0.9,1.2-1.6,2.1-1.6c0.2,0,0.5,0,0.8,0.1v0.9c-0.2-0.1-0.6-0.2-0.8-0.2 c-1.4,0-2.1,1.4-2.1,2.7v3.2H556.8z"/></g><g class="st1"><path d="M562.1,259.2v-3.9h-1.3v-0.7h1.3v-2h0.8v2h2v0.7h-2v3.7c0,0.7,0,1.7,0.9,1.7c0.3,0,0.7-0.1,1.1-0.4v0.8 c-0.3,0.2-0.8,0.3-1.2,0.3C562.1,261.4,562.1,260,562.1,259.2z"/></g><g class="st1"><path d="M566.1,252.2c0-0.4,0.3-0.7,0.7-0.7c0.4,0,0.7,0.3,0.7,0.7c0,0.4-0.3,0.7-0.7,0.7C566.3,252.9,566.1,252.6,566.1,252.2z M566.3,261.2v-6.6h0.8v6.6H566.3z"/></g><g class="st1"><path d="M568.6,259.5l0.8-0.2c0.3,0.8,1.2,1.4,2,1.4c0.6,0,1.5-0.3,1.5-1.2c0-0.8-0.7-1-1.4-1.2l-0.6-0.2c-0.6-0.2-1.9-0.6-1.9-1.9 c0-1.3,1.2-1.8,2.2-1.8c1.1,0,2.1,0.7,2.4,1.6l-0.8,0.3c-0.2-0.6-0.8-1.2-1.6-1.2c-0.7,0-1.3,0.4-1.3,1.1c0,0.8,0.9,1.1,1.5,1.3 l0.6,0.2c0.7,0.2,1.8,0.5,1.8,1.7c0,1.1-1,2-2.4,2C570,261.4,569,260.6,568.6,259.5z"/></g><g class="st1"><path d="M575.5,259.2v-3.9h-1.3v-0.7h1.3v-2h0.8v2h2v0.7h-2v3.7c0,0.7,0,1.7,0.9,1.7c0.3,0,0.7-0.1,1.1-0.4v0.8 c-0.3,0.2-0.8,0.3-1.2,0.3C575.5,261.4,575.5,260,575.5,259.2z"/></g><g class="st1"><path d="M579.1,257.9c0-2.1,1.4-3.5,3.2-3.5c1.2,0,3,0.7,3,3.3v0.4h-5.4c0,1.6,1,2.6,2.4,2.6c1.2,0,2-0.8,2.3-1.7l0.7,0.3 c-0.5,1.4-1.7,2.1-3.1,2.1C580.5,261.4,579.1,260,579.1,257.9z M584.5,257.3c0-1.7-1.2-2.3-2.2-2.3c-1.3,0-2.2,0.9-2.3,2.3H584.5z"/></g><g class="st1"><path d="M586.4,259.5l0.8-0.2c0.3,0.8,1.2,1.4,2,1.4c0.6,0,1.5-0.3,1.5-1.2c0-0.8-0.7-1-1.4-1.2l-0.6-0.2c-0.6-0.2-1.9-0.6-1.9-1.9 c0-1.3,1.2-1.8,2.2-1.8c1.1,0,2.1,0.7,2.4,1.6l-0.8,0.3c-0.2-0.6-0.8-1.2-1.6-1.2c-0.7,0-1.3,0.4-1.3,1.1c0,0.8,0.9,1.1,1.5,1.3 l0.6,0.2c0.7,0.2,1.8,0.5,1.8,1.7c0,1.1-1,2-2.4,2C587.8,261.4,586.7,260.6,586.4,259.5z"/></g><g class="st1"><path d="M595.3,257.9c0-2.1,1.4-3.5,3.1-3.5c1,0,2,0.5,2.5,1.5h0v-4.3h0.8v7.5c0,1.1,0.1,1.6,0.2,2.1h-0.8 c-0.1-0.5-0.2-0.9-0.2-1.3h0c-0.5,1-1.5,1.5-2.5,1.5C596.6,261.4,595.3,259.9,595.3,257.9z M600.9,257.9c0-1.6-1.1-2.8-2.4-2.8 c-1.4,0-2.3,1.2-2.3,2.8c0,1.6,1,2.8,2.3,2.8C599.9,260.6,600.9,259.5,600.9,257.9z"/></g><g class="st1"><path d="M603.7,254.4v-2.6h0.8v2.6H603.7z"/></g><g class="st1"><path d="M605.4,259.7c0-1.2,1.1-1.8,2.4-2c1.2-0.3,2.1-0.3,2.1-1.1c0-0.7-0.7-1.4-1.7-1.4c-0.9,0-1.5,0.5-1.8,1.4l-0.8-0.3 c0.4-1.3,1.5-1.8,2.6-1.8c1.2,0,2.5,0.6,2.5,2.2v2.5c0,1.1,0.1,1.6,0.2,2.1h-0.8c-0.1-0.5-0.2-0.9-0.2-1.4h0 c-0.4,0.9-1.2,1.6-2.4,1.6C606.3,261.4,605.4,260.8,605.4,259.7z M609.9,258.5v-0.9c-0.4,0.3-0.7,0.4-1.6,0.6 c-0.8,0.1-2.1,0.4-2.1,1.4c0,0.7,0.5,1.1,1.4,1.1C609,260.7,609.9,259.4,609.9,258.5z"/></g><g class="st1"><path d="M612.5,252.2c0-0.4,0.3-0.7,0.7-0.7c0.4,0,0.7,0.3,0.7,0.7c0,0.4-0.3,0.7-0.7,0.7C612.8,252.9,612.5,252.6,612.5,252.2z M612.8,261.2v-6.6h0.8v6.6H612.8z"/></g><g class="st1"><path d="M615.7,261.2v-9.6h0.8v9.6H615.7z"/></g><g class="st1"><path d="M618.6,261.2v-9.6h0.8v9.6H618.6z"/></g><g class="st1"><path d="M621.1,257.9c0-2.1,1.4-3.5,3.2-3.5c1.2,0,3,0.7,3,3.3v0.4h-5.4c0,1.6,1,2.6,2.4,2.6c1.2,0,2-0.8,2.3-1.7l0.7,0.3 c-0.5,1.4-1.7,2.1-3.1,2.1C622.4,261.4,621.1,260,621.1,257.9z M626.5,257.3c0-1.7-1.2-2.3-2.2-2.3c-1.3,0-2.2,0.9-2.3,2.3H626.5z"/></g><g class="st1"><path d="M628.9,258.7v-4.1h0.8v3.8c0,1.7,0.9,2.2,1.8,2.2c1.3,0,2.1-1.2,2.1-2.3v-3.7h0.8v4.5c0,1.1,0.1,1.6,0.2,2.1h-0.8 c-0.1-0.5-0.2-0.9-0.2-1.2h0c-0.5,1-1.3,1.4-2.3,1.4C630.1,261.4,628.9,260.7,628.9,258.7z"/></g><g class="st1"><path d="M636.5,261.2v-6.6h0.8v1.4h0c0.3-0.9,1.2-1.6,2.1-1.6c0.2,0,0.5,0,0.8,0.1v0.9c-0.2-0.1-0.6-0.2-0.8-0.2 c-1.4,0-2.1,1.4-2.1,2.7v3.2H636.5z"/></g><g class="st1"><path d="M640.7,259.5l0.8-0.2c0.3,0.8,1.2,1.4,2,1.4c0.6,0,1.5-0.3,1.5-1.2c0-0.8-0.7-1-1.4-1.2l-0.6-0.2c-0.6-0.2-1.9-0.6-1.9-1.9 c0-1.3,1.2-1.8,2.2-1.8c1.1,0,2.1,0.7,2.4,1.6l-0.8,0.3c-0.2-0.6-0.8-1.2-1.6-1.2c-0.7,0-1.3,0.4-1.3,1.1c0,0.8,0.9,1.1,1.5,1.3 l0.6,0.2c0.7,0.2,1.8,0.5,1.8,1.7c0,1.1-1,2-2.4,2C642.1,261.4,641,260.6,640.7,259.5z"/></g><g class="st1"><path d="M547.4,275.2c0-2.1,1.4-3.5,3.2-3.5c1.2,0,3,0.7,3,3.3v0.4h-5.4c0,1.6,1,2.6,2.4,2.6c1.2,0,2-0.8,2.3-1.7l0.7,0.3 c-0.5,1.4-1.7,2.1-3.1,2.1C548.8,278.7,547.4,277.3,547.4,275.2z M552.8,274.7c0-1.7-1.2-2.3-2.2-2.3c-1.3,0-2.2,0.9-2.3,2.3H552.8 z"/></g><g class="st1"><path d="M555.4,278.5v-6.6h0.8v1.3h0c0.5-1,1.4-1.5,2.3-1.5c1.2,0,2.4,0.7,2.4,2.7v4.1h-0.8v-3.8c0-1.7-0.9-2.3-1.8-2.3 c-1.4,0-2.1,1.2-2.1,2.4v3.7H555.4z"/></g><g class="st1"><path d="M572.1,270h-4.9v3.4h4.7v0.8h-4.7v4.3h-0.9v-9.4h5.8V270z"/></g><g class="st1"><path d="M573.4,278.5v-6.6h0.8v1.4h0c0.3-0.9,1.2-1.6,2.1-1.6c0.2,0,0.5,0,0.8,0.1v0.9c-0.2-0.1-0.6-0.2-0.8-0.2 c-1.4,0-2.1,1.4-2.1,2.7v3.2H573.4z"/></g><g class="st1"><path d="M577.6,277c0-1.2,1.1-1.8,2.4-2c1.2-0.3,2.1-0.3,2.1-1.1c0-0.7-0.7-1.4-1.7-1.4c-0.9,0-1.5,0.5-1.8,1.4l-0.8-0.3 c0.4-1.3,1.5-1.8,2.6-1.8c1.2,0,2.5,0.6,2.5,2.2v2.5c0,1.1,0.1,1.6,0.2,2.1h-0.8c-0.1-0.5-0.2-0.9-0.2-1.4h0 c-0.4,0.9-1.2,1.6-2.4,1.6C578.5,278.7,577.6,278.1,577.6,277z M582.1,275.9V275c-0.4,0.3-0.7,0.4-1.6,0.6 c-0.8,0.1-2.1,0.4-2.1,1.4c0,0.7,0.5,1.1,1.4,1.1C581.2,278.1,582.1,276.7,582.1,275.9z"/></g><g class="st1"><path d="M584.9,278.5v-6.6h0.8v1.3h0c0.5-1,1.4-1.5,2.3-1.5c1.2,0,2.4,0.7,2.4,2.7v4.1h-0.8v-3.8c0-1.7-0.9-2.3-1.8-2.3 c-1.4,0-2.1,1.2-2.1,2.4v3.7H584.9z"/></g><g class="st1"><path d="M592,275.2c0-2.1,1.4-3.5,3.3-3.5c1.2,0,2.3,0.5,2.9,1.9l-0.8,0.3c-0.3-0.9-1.1-1.4-2.1-1.4c-1.5,0-2.4,1.2-2.4,2.8 c0,1.7,1,2.8,2.5,2.8c1.2,0,2-0.7,2.4-1.7l0.7,0.3c-0.5,1.4-1.7,2.2-3.1,2.2C593.4,278.7,592,277.3,592,275.2z"/></g><g class="st1"><path d="M599.3,275.2c0-2.1,1.4-3.5,3.2-3.5c1.2,0,3,0.7,3,3.3v0.4h-5.4c0,1.6,1,2.6,2.4,2.6c1.2,0,2-0.8,2.3-1.7l0.7,0.3 c-0.5,1.4-1.7,2.1-3.1,2.1C600.7,278.7,599.3,277.3,599.3,275.2z M604.7,274.7c0-1.7-1.2-2.3-2.2-2.3c-1.3,0-2.2,0.9-2.3,2.3H604.7 z"/></g><g class="st1"><path d="M549,295.8v-6.5c-0.4,0.5-1.2,0.9-1.8,1.1v-1.9c1.1-0.3,1.9-1.2,1.9-2.1h1.8v9.4H549z"/></g><g class="st1"><path d="M552.3,293.2c0-1.2,0.8-2.1,1.7-2.3v0c-0.8-0.3-1.3-1.1-1.3-2c0-1.5,1.4-2.6,3.1-2.6c1.7,0,3.1,1,3.1,2.6 c0,0.8-0.4,1.6-1.3,2v0c0.9,0.2,1.7,1.1,1.7,2.3c0,1.5-1.4,2.8-3.5,2.8C553.7,296,552.3,294.8,552.3,293.2z M557.5,293 c0-0.9-0.7-1.5-1.7-1.5c-1,0-1.7,0.6-1.7,1.5c0,0.9,0.8,1.5,1.6,1.5C556.7,294.5,557.5,293.9,557.5,293z M557.2,289 c0-0.7-0.6-1.2-1.3-1.2c-0.7,0-1.3,0.5-1.3,1.2c0,0.7,0.6,1.2,1.3,1.2C556.6,290.2,557.2,289.7,557.2,289z"/></g><g class="st1"><path d="M561.5,564.6h-4.9v3.4h4.7v0.8h-4.7v4.3h-0.9v-9.4h5.8V564.6z"/></g><g class="st1"><path d="M562.3,569.9c0-2.1,1.4-3.5,3.2-3.5c1.2,0,3,0.7,3,3.3v0.4h-5.4c0,1.6,1,2.6,2.4,2.6c1.2,0,2-0.8,2.3-1.7l0.7,0.3 c-0.5,1.4-1.7,2.1-3.1,2.1C563.7,573.4,562.3,572,562.3,569.9z M567.7,569.3c0-1.7-1.2-2.3-2.2-2.3c-1.3,0-2.2,0.9-2.3,2.3H567.7z"/></g><g class="st1"><path d="M570.3,573.2v-6.6h0.8v1.3h0c0.5-1,1.4-1.5,2.3-1.5c0.9,0,1.9,0.4,2.2,1.6h0c0.6-1.2,1.5-1.6,2.4-1.6 c1.1,0,2.4,0.7,2.4,2.7v4.1h-0.8v-3.8c0-1.7-0.8-2.3-1.8-2.3c-1.3,0-2.1,1.2-2.1,2.4v3.7h-0.8v-3.8c0-1.7-0.8-2.3-1.8-2.3 c-1.3,0-2.1,1.2-2.1,2.4v3.7H570.3z"/></g><g class="st1"><path d="M582.4,573.2v-6.6h0.8v1.3h0c0.5-1,1.4-1.5,2.3-1.5c0.9,0,1.9,0.4,2.2,1.6h0c0.6-1.2,1.5-1.6,2.4-1.6 c1.1,0,2.4,0.7,2.4,2.7v4.1h-0.8v-3.8c0-1.7-0.8-2.3-1.8-2.3c-1.3,0-2.1,1.2-2.1,2.4v3.7H587v-3.8c0-1.7-0.8-2.3-1.8-2.3 c-1.3,0-2.1,1.2-2.1,2.4v3.7H582.4z"/></g><g class="st1"><path d="M594,569.9c0-2.1,1.4-3.5,3.2-3.5c1.2,0,3,0.7,3,3.3v0.4h-5.4c0,1.6,1,2.6,2.4,2.6c1.2,0,2-0.8,2.3-1.7l0.7,0.3 c-0.5,1.4-1.7,2.1-3.1,2.1C595.4,573.4,594,572,594,569.9z M599.4,569.3c0-1.7-1.2-2.3-2.2-2.3c-1.3,0-2.2,0.9-2.3,2.3H599.4z"/></g><g class="st1"><path d="M601.3,571.5l0.8-0.2c0.3,0.8,1.2,1.4,2,1.4c0.6,0,1.5-0.3,1.5-1.2c0-0.8-0.7-1-1.4-1.2l-0.6-0.2c-0.6-0.2-1.9-0.6-1.9-1.9 c0-1.3,1.2-1.8,2.2-1.8c1.1,0,2.1,0.7,2.4,1.6l-0.8,0.3c-0.2-0.6-0.8-1.2-1.6-1.2c-0.7,0-1.3,0.4-1.3,1.1c0,0.8,0.9,1.1,1.5,1.3 l0.6,0.2c0.7,0.2,1.8,0.5,1.8,1.7c0,1.1-1,2-2.4,2C602.7,573.4,601.6,572.6,601.3,571.5z"/></g><g class="st1"><path d="M555.1,590.5v-0.2c0.1-2.2,0.9-3.1,3-4.5c0.9-0.6,1.6-1.1,1.6-2c0-0.7-0.5-1.3-1.4-1.3c-1.1,0-1.8,0.9-1.8,2.1l-1.7-0.3 c0-2,1.4-3.4,3.5-3.4c1.8,0,3.2,1.1,3.2,2.9c0,1.3-0.8,2.1-1.7,2.7c-1,0.7-2.2,1.2-2.5,2.3h4.1v1.7H555.1z"/></g><g class="st1"><path d="M562.7,590.5v-0.2c0.1-2.2,0.9-3.1,3-4.5c0.9-0.6,1.6-1.1,1.6-2c0-0.7-0.5-1.3-1.4-1.3c-1.1,0-1.8,0.9-1.8,2.1l-1.7-0.3 c0-2,1.4-3.4,3.5-3.4c1.8,0,3.2,1.1,3.2,2.9c0,1.3-0.8,2.1-1.7,2.7c-1,0.7-2.2,1.2-2.5,2.3h4.1v1.7H562.7z"/></g><path d="M203.5,168.8c0,44.8,21.8,86.7,58.3,112.4l17.4-25.5c-47.2-33.5-59.1-98.9-26.4-146.9c19.5-28.6,51.5-45.9,86-46.5V31.4 C264.1,32.5,203.5,93.7,203.5,168.8z"/><path d="M343.1,31.4v30.8c36.5,0.7,70.3,20.2,89.2,51.5L459,98.3C434.7,57.6,390.6,32.1,343.1,31.4z"/><path d="M454.6,246.3c14.6-21.4,22.8-46.4,23.8-72.3c0.9-25.2-5-50.1-17.3-72.1l-26.7,15.4c13.4,24.3,16.9,52.3,9.7,79.1 c-7.4,27.5-25,50.5-49.6,64.7c-17.4,10-37.2,14.9-57.3,14.2c-19.4-0.7-38.2-6.7-54.4-17.3l-17.4,25.5 C327.8,324.8,412.3,308.4,454.6,246.3z"/><path d="M203.2,501c0,32.9,11.8,64.7,33.2,89.7c21,24.4,49.9,40.7,81.6,45.9l4.6-30.5c-57-9.7-96.1-63.5-87.5-121 c3.8-25.2,16.5-48.3,35.8-64.9c18.8-16.2,42.7-25.3,67.5-25.8v-30.9C263.7,364.7,203.2,425.9,203.2,501z"/></svg>